<svg id="visual" viewBox="0 0 900 600" width="900" height="600" xmlns="http://www.w3.org/2000/svg" xmlns:xlink="http://www.w3.org/1999/xlink" version="1.1"><rect x="0" y="0" width="900" height="600" fill="#696bff"></rect><path d="M0 357L21.5 366.7C43 376.3 86 395.7 128.8 399.2C171.7 402.7 214.3 390.3 257.2 387.3C300 384.3 343 390.7 385.8 397.3C428.7 404 471.3 411 514.2 414.2C557 417.3 600 416.7 642.8 414.5C685.7 412.3 728.3 408.7 771.2 412.8C814 417 857 429 878.5 435L900 441L900 601L878.5 601C857 601 814 601 771.2 601C728.3 601 685.7 601 642.8 601C600 601 557 601 514.2 601C471.3 601 428.7 601 385.8 601C343 601 300 601 257.2 601C214.3 601 171.7 601 128.8 601C86 601 43 601 21.5 601L0 601Z" fill="#696bff"></path><path d="M0 478L21.5 477.3C43 476.7 86 475.3 128.8 462C171.7 448.7 214.3 423.3 257.2 422.5C300 421.7 343 445.3 385.8 454.7C428.7 464 471.3 459 514.2 455.5C557 452 600 450 642.8 450C685.7 450 728.3 452 771.2 453.7C814 455.3 857 456.7 878.5 457.3L900 458L900 601L878.5 601C857 601 814 601 771.2 601C728.3 601 685.7 601 642.8 601C600 601 557 601 514.2 601C471.3 601 428.7 601 385.8 601C343 601 300 601 257.2 601C214.3 601 171.7 601 128.8 601C86 601 43 601 21.5 601L0 601Z" fill="#485bc6"></path><path d="M0 442L21.5 450.7C43 459.3 86 476.7 128.8 482.7C171.7 488.7 214.3 483.3 257.2 477.3C300 471.3 343 464.7 385.8 460.5C428.7 456.3 471.3 454.7 514.2 452.2C557 449.7 600 446.3 642.8 452.5C685.7 458.7 728.3 474.3 771.2 484.2C814 494 857 498 878.5 500L900 502L900 601L878.5 601C857 601 814 601 771.2 601C728.3 601 685.7 601 642.8 601C600 601 557 601 514.2 601C471.3 601 428.7 601 385.8 601C343 601 300 601 257.2 601C214.3 601 171.7 601 128.8 601C86 601 43 601 21.5 601L0 601Z" fill="#34498e"></path><path d="M0 517L21.5 514.7C43 512.3 86 507.7 128.8 511C171.7 514.3 214.3 525.7 257.2 529.8C300 534 343 531 385.8 532C428.7 533 471.3 538 514.2 532C557 526 600 509 642.8 503C685.7 497 728.3 502 771.2 500.8C814 499.7 857 492.3 878.5 488.7L900 485L900 601L878.5 601C857 601 814 601 771.2 601C728.3 601 685.7 601 642.8 601C600 601 557 601 514.2 601C471.3 601 428.7 601 385.8 601C343 601 300 601 257.2 601C214.3 601 171.7 601 128.8 601C86 601 43 601 21.5 601L0 601Z" fill="#2a3558"></path><path d="M0 544L21.5 540.7C43 537.3 86 530.7 128.8 531.7C171.7 532.7 214.3 541.3 257.2 546.2C300 551 343 552 385.8 551.8C428.7 551.7 471.3 550.3 514.2 547.3C557 544.3 600 539.7 642.8 535.7C685.7 531.7 728.3 528.3 771.2 532.5C814 536.7 857 548.3 878.5 554.2L900 560L900 601L878.5 601C857 601 814 601 771.2 601C728.3 601 685.7 601 642.8 601C600 601 557 601 514.2 601C471.3 601 428.7 601 385.8 601C343 601 300 601 257.2 601C214.3 601 171.7 601 128.8 601C86 601 43 601 21.5 601L0 601Z" fill="#202125"></path></svg>